<svg xmlns="http://www.w3.org/2000/svg" viewBox="0 0 311.81 90.94"><defs><style>.cls-1{fill:#c5c5c5;}.cls-2{fill:#32b482;}</style></defs><title>Лого_2</title><g id="Слой_2" data-name="Слой 2"><g id="Слой_1-2" data-name="Слой 1"><path class="cls-1" d="M86.61,39a26,26,0,1,0,22.51,39H98.07a17.32,17.32,0,0,1-28.23-8.66h42.4A26,26,0,0,0,86.61,39Zm16.76,21.65H69.86c-.06.22-.12.44-.17.67,0-.22.09-.45.15-.67h0a17.3,17.3,0,0,1,33.51,0h0c.06.22.1.45.15.67C103.49,61.07,103.43,60.85,103.37,60.63Z"/><path class="cls-1" d="M311.45,60.63h-42.4A17.33,17.33,0,0,1,297.29,52h11a26,26,0,0,0-48.13,8.66,26.22,26.22,0,0,0,0,8.66h42.4A17.32,17.32,0,0,1,274.37,78H263.32a26,26,0,0,0,48.13-17.32Z"/><path class="cls-1" d="M43.31,45.59A26,26,0,0,0,0,65v26H8.66V65a17.33,17.33,0,0,1,34.65,0v26H52V65A25.94,25.94,0,0,0,43.31,45.59Z"/><path class="cls-1" d="M147.24,39a26,26,0,1,0,26,26A26,26,0,0,0,147.24,39Zm0,43.3A17.32,17.32,0,1,1,164.57,65,17.32,17.32,0,0,1,147.24,82.28Z"/><path class="cls-1" d="M207.87,39a25.91,25.91,0,0,0-17.32,6.61V30.31h-8.66V65a26,26,0,1,0,26-26Zm0,43.3A17.32,17.32,0,1,1,225.2,65,17.32,17.32,0,0,1,207.87,82.28Z"/><rect class="cls-1" x="242.52" y="38.98" width="8.66" height="51.97"/><path class="cls-2" d="M264.5,25.66a15.15,15.15,0,0,0,2.27-3.17c.2-.38.39-.77.56-1.16a14.49,14.49,0,0,0,.75-2.28,12.54,12.54,0,0,0,.35-2.05,13.37,13.37,0,0,0,.07-1.42V4.33H257.26a13.37,13.37,0,0,0-1.42.07,14.07,14.07,0,0,0-2.06.35,14.76,14.76,0,0,0-2.27.76c-.4.17-.78.35-1.16.55a14.39,14.39,0,0,0-3.17,2.29l-.33.31h8.66v8.66h-8.66V8.66a15.28,15.28,0,0,0-1.49,1.73,14.83,14.83,0,0,0-2.7,6.61,15.46,15.46,0,0,0-.14,2.05V30.33h11.26a17.52,17.52,0,0,0,2.06-.15,14.67,14.67,0,0,0,6.6-2.7A16.25,16.25,0,0,0,264.5,25.66Z"/><polygon class="cls-2" points="246.85 6.06 246.85 4 246.85 1.73 246.85 0 245.12 0 242.84 0 240.79 0 238.51 0 238.19 0 238.19 1.73 238.19 4 238.19 6.06 238.19 8.34 238.19 8.66 238.51 8.66 240.79 8.66 242.84 8.66 245.12 8.66 246.85 8.66 246.85 8.34 246.85 6.06"/></g></g></svg>